# xmcd
# 
# Track frame offsets:
#     150
#     18643
#     35142
#     53997
#     70285
#     86782
#     106398
#     123583
#     144542
#     165222
#     182295
#     198451
#     218911
#     230325
#     231468
#     232622
#     233731
#     234777
#     261642
# 
# Disc length: 4440
# 
# Revision: 1
# Processed by: cddbd v1.5.2PL0 Copyright (c) Steve Scherf et al.
# Submitted via: BonkEnc v1.0.15
# 
DISCID=07115613
DTITLE=Dick Rivers r - Dick Rivers 06
DYEAR=2006
DGENRE=Folk/Rock
TTITLE0=Le mauvais joueur
TTITLE1=Je vis sur une île
TTITLE2=Anna/grammes
TTITLE3=La chanson des adieux
TTITLE4=Amours et blue jeans
TTITLE5=Ode à Dick
TTITLE6=Veilleur de vie
TTITLE7=Elvis avait l'air d'un ange
TTITLE8=Tout se consume (rien ne dure vraiment)
TTITLE9=Tu perdras
TTITLE10=Ma doudou
TTITLE11=La nuit
TTITLE12=Ma chanson de l'été
TTITLE13=Blank
TTITLE14=Blank
TTITLE15=Blank
TTITLE16=Blank
TTITLE17=Les yeux bleus (pleurant sous la pluie)
TTITLE18=CD-ROM Track
EXTD=
EXTT0=
EXTT1=
EXTT2=
EXTT3=
EXTT4=
EXTT5=
EXTT6=
EXTT7=
EXTT8=
EXTT9=
EXTT10=
EXTT11=
EXTT12=
EXTT13=
EXTT14=
EXTT15=
EXTT16=
EXTT17=
EXTT18=
PLAYORDER=
